<svg xmlns="http://www.w3.org/2000/svg" width="40" height="40" viewBox="0 0 40 40">
    <g transform="translate(-782 -65)">
        <path data-name="사각형 961" transform="translate(782 65)" style="fill:none" d="M0 0h40v40H0z"/>
        <rect data-name="사각형 1001" width="40" height="40" rx="8" transform="translate(782 65)" style="fill:rgba(38,40,49,.08)"/>
        <path data-name="제외 4" d="M-6229-2970a1 1 0 0 1-1-1v-2h-6a2 2 0 0 1-2-2v-14a2 2 0 0 1 2-2h6v-2a1 1 0 0 1 1-1 1 1 0 0 1 1 1v2h6a2 2 0 0 1 2 2v14a2 2 0 0 1-2 2h-6v2a1 1 0 0 1-1 1zm-1-21v18h2v-18h-2z" transform="translate(7031 3067)" style="fill:#707070"/>
    </g>
</svg>
